<svg width="36" height="37" viewBox="0 0 36 37" fill="none" xmlns="http://www.w3.org/2000/svg">
<path d="M0 11.224H4.31788V20.9422H0V11.224ZM6.83036 9.92871C6.83036 9.92871 21.86 9.38206 29.7436 0.0381773C29.7436 0.0381773 36.4867 -1.56647 35.972 16.0306C35.972 16.0306 36.6897 28.1482 29.8071 29.8552C29.8071 29.8552 24.6395 23.1846 6.83507 22.376L6.83036 9.92871ZM9.62859 25.3145C9.62859 25.3145 10.2604 31.0197 14.9093 36.9943C14.9093 36.9943 18.949 37.1741 19.5582 35.5117C19.5582 35.5117 19.987 34.4112 18.7006 32.9962C18.2889 32.3456 14.6276 29.2676 14.0293 25.3145H9.62859V25.3145Z" fill="#5D9BF9"/>
</svg>
