<svg width="23" height="23" viewBox="0 0 23 23" fill="none" xmlns="http://www.w3.org/2000/svg">
<path d="M19.6319 3.36806C17.4599 1.196 14.5719 0 11.5 0C8.42806 0 5.54012 1.196 3.36806 3.36806C1.196 5.54012 0 8.42806 0 11.5C0 14.5719 1.196 17.4599 3.36806 19.6319C5.54012 21.804 8.42806 23 11.5 23C14.5719 23 17.4599 21.804 19.6319 19.6319C21.804 17.4599 23 14.5719 23 11.5C23 8.42806 21.804 5.54012 19.6319 3.36806ZM20.125 11.5C20.125 13.3601 19.5327 15.0844 18.5279 16.4946L6.50541 4.47206C7.91559 3.46653 9.63988 2.875 11.5 2.875C16.256 2.875 20.125 6.74403 20.125 11.5ZM2.875 11.5C2.875 9.63988 3.46725 7.91559 4.47206 6.50541L16.4946 18.5279C15.0844 19.5335 13.3601 20.125 11.5 20.125C6.74403 20.125 2.875 16.256 2.875 11.5Z" fill="white"/>
</svg>
