<svg width="40" height="40" viewBox="0 0 40 40" fill="none" xmlns="http://www.w3.org/2000/svg">
<path d="M37.5595 27.8887H7.00011C3.95605 27.8887 1.48828 30.3564 1.48828 33.4005C1.48828 36.4446 3.95597 38.9124 7.00011 38.9124H37.5595V27.8887Z" fill="#F4E9D7"/>
<path d="M8.21811 33.4004C8.21811 31.1864 8.98657 29.2066 10.1945 27.8887H7.00011C3.95605 27.8887 1.48828 30.3564 1.48828 33.4004C1.48828 36.4445 3.95605 38.9122 7.00011 38.9122H10.1945C8.98657 37.5943 8.21811 35.6145 8.21811 33.4004Z" fill="#F2E5D0"/>
<path d="M8.93102 39.9375H6.65621C2.98012 39.9375 0 36.9573 0 33.2812C0 29.6051 2.98012 26.625 6.65621 26.625H39.3386C39.67 26.625 39.9387 26.8937 39.9387 27.2251V29.089C39.9387 29.4204 39.67 29.6891 39.3386 29.6891H6.71999C4.70999 29.6891 3.03028 31.334 3.06471 33.3436C3.09817 35.2957 4.69645 36.8732 6.65629 36.8732H8.93102H39.3386C39.67 36.8732 39.9387 37.1419 39.9387 37.4733V39.3372C39.9387 39.6686 39.67 39.9373 39.3386 39.9373H8.93102V39.9375Z" fill="#91D4DD"/>
<path d="M16.0776 39.7441L13.9483 38.8629L11.8189 39.7441C11.5964 39.8362 11.3516 39.6727 11.3516 39.4317V33.2812H16.5449V39.4317C16.545 39.6727 16.3001 39.8363 16.0776 39.7441Z" fill="#5D9BF9"/>
<path d="M17.5964 33.8853H10.011C9.67702 33.8853 9.40625 33.6146 9.40625 33.2806C9.40625 32.9465 9.67702 32.6758 10.011 32.6758H17.5964C17.9304 32.6758 18.2012 32.9465 18.2012 33.2806C18.2012 33.6146 17.9304 33.8853 17.5964 33.8853Z" fill="#F2E5D0"/>
<path d="M2.39453 14.2578H32.1553C35.2383 14.2578 37.7375 16.757 37.7375 19.84C37.7375 22.9231 35.2383 25.4223 32.1553 25.4223H2.39453V14.2578Z" fill="#F4E9D7"/>
<path d="M2.39453 14.2578H9.18661V25.4223H2.39453V14.2578Z" fill="#F2E5D0"/>
<path d="M31.0233 26.6249H33.2981C36.9742 26.6249 39.9543 23.6448 39.9543 19.9687C39.9543 16.2926 36.9742 13.3125 33.2981 13.3125H0.615714C0.284302 13.3125 0.015625 13.5812 0.015625 13.9126V15.7765C0.015625 16.1079 0.284302 16.3766 0.615714 16.3766H33.2343C35.2443 16.3766 36.9241 18.0214 36.8896 20.0311C36.8562 21.9831 35.2579 23.5607 33.298 23.5607H31.0233H0.615714C0.284302 23.5607 0.015625 23.8294 0.015625 24.1608V26.0247C0.015625 26.3561 0.284302 26.6248 0.615714 26.6248H31.0233V26.6249Z" fill="#F47C7C"/>
<path d="M0.615714 16.3766H9.07501C8.7436 16.3766 8.47492 16.1079 8.47492 15.7765V13.9126C8.47492 13.5812 8.7436 13.3125 9.07501 13.3125H0.615714C0.284302 13.3125 0.015625 13.5812 0.015625 13.9126V15.7765C0.015625 16.1079 0.284302 16.3766 0.615714 16.3766Z" fill="#EE6161"/>
<path d="M8.47492 26.0245V24.1606C8.47492 23.8292 8.7436 23.5605 9.07501 23.5605H0.615714C0.284302 23.5605 0.015625 23.8292 0.015625 24.1606V26.0245C0.015625 26.3559 0.284302 26.6246 0.615714 26.6246H9.07501C8.7436 26.6246 8.47492 26.3559 8.47492 26.0245Z" fill="#EE6161"/>
<path d="M37.5572 0.966797H6.39938C3.3462 0.966797 0.871094 3.4419 0.871094 6.49508C0.871094 9.54826 3.3462 12.0234 6.39938 12.0234H37.5572V0.966797Z" fill="#F4E9D7"/>
<path d="M7.13131 6.80617C7.13131 4.40614 8.30246 2.27994 10.1041 0.966797H6.39938C3.3462 0.966797 0.871094 3.4419 0.871094 6.49508C0.871094 9.54826 3.3462 12.0234 6.39938 12.0234H9.36C7.98661 10.7088 7.13131 8.85746 7.13131 6.80617Z" fill="#F2E5D0"/>
<path d="M23.8147 26.4575L26.0068 25.5502L28.1988 26.4575C28.3916 26.5372 28.6035 26.3956 28.6035 26.187V19.9688H23.4102V26.187C23.4101 26.3955 23.622 26.5372 23.8147 26.4575Z" fill="#FDB441"/>
<path d="M29.944 20.5728H22.3587C22.0246 20.5728 21.7539 20.3021 21.7539 19.9681C21.7539 19.634 22.0246 19.3633 22.3587 19.3633H29.944C30.278 19.3633 30.5487 19.634 30.5487 19.9681C30.5487 20.3021 30.278 20.5728 29.944 20.5728Z" fill="#F2E5D0"/>
<path d="M40.0012 10.8479V12.7122C40.0012 13.0436 39.7319 13.3121 39.4005 13.3121H8.99287H6.71815C4.88047 13.3121 3.21615 12.567 2.01146 11.3623C0.807571 10.1576 0.0625 8.49413 0.0625 6.65565C0.0625 2.97948 3.04198 0 6.71815 0H39.4005C39.7319 0 40.0012 0.268516 40.0012 0.599927V2.46341C40.0012 2.79482 39.7319 3.06415 39.4005 3.06415H6.78185C4.77241 3.06415 3.09278 4.7083 3.12665 6.71854C3.16051 8.66992 4.75871 10.248 6.71815 10.248H8.99287H39.4005C39.7319 10.248 40.0012 10.5165 40.0012 10.8479Z" fill="#FFA71C"/>
<path d="M8.00557 10.248H6.71815C4.75871 10.248 3.16051 8.66992 3.12665 6.71854C3.09278 4.7083 4.77241 3.06415 6.78185 3.06415H8.177C9.03254 1.65432 10.3572 0.561061 11.9343 0H6.71815C3.04198 0 0.0625 2.97948 0.0625 6.65565C0.0625 8.49413 0.807571 10.1576 2.01146 11.3623C3.21615 12.567 4.88047 13.3121 6.71815 13.3121H8.99287H11.2195C9.85382 12.6528 8.72734 11.5763 8.00557 10.248Z" fill="#FEA613"/>
<path d="M16.2773 13.1775L14.0068 12.2377L11.7362 13.1775C11.5809 13.2417 11.4102 13.1276 11.4102 12.9595V6.65625H16.6035V12.9595C16.6034 13.1276 16.4326 13.2418 16.2773 13.1775Z" fill="#91D4DD"/>
<path d="M17.6589 7.26032H10.0735C9.73952 7.26032 9.46875 6.98962 9.46875 6.65555C9.46875 6.32148 9.73952 6.05078 10.0735 6.05078H17.6589C17.9929 6.05078 18.2637 6.32148 18.2637 6.65555C18.2637 6.98962 17.993 7.26032 17.6589 7.26032Z" fill="#F2E5D0"/>
<path d="M8.90271 36.8733H6.65621C4.69637 36.8733 3.09809 35.2957 3.06463 33.3437C3.0302 31.334 4.70991 29.6892 6.71991 29.6892H9.00851C9.66335 28.2771 10.6805 27.1831 11.892 26.625H6.65621C2.98012 26.625 0 29.6051 0 33.2812C0 36.9573 2.98012 39.9375 6.65621 39.9375H8.93102H11.4383C10.3624 39.2958 9.47256 38.2161 8.90271 36.8733Z" fill="#91D4DD"/>
</svg>
