<svg width="22" height="18" viewBox="0 0 22 18" fill="none" xmlns="http://www.w3.org/2000/svg">
<path fill-rule="evenodd" clip-rule="evenodd" d="M13.0494 0H8.59101C8.00449 0 7.44668 0.231816 7.04883 0.630846L5.74453 1.94574H2.42227C1.26563 1.94574 0.322266 2.8198 0.322266 3.89148V15.5659C0.322266 16.6376 1.26563 17.5117 2.42227 17.5117H19.2223C20.3789 17.5117 21.3223 16.6376 21.3223 15.5659V3.89148C21.3223 2.8198 20.3789 1.94574 19.2223 1.94574H15.9082L14.5957 0.627045C14.1979 0.228016 13.6359 0 13.0494 0ZM10.8223 4.9875C13.616 4.9875 15.8098 7.18122 15.8098 9.975C15.8098 12.7688 13.616 14.9625 10.8223 14.9625C8.02849 14.9625 5.83477 12.7688 5.83477 9.975C5.83477 7.18122 8.02849 4.9875 10.8223 4.9875ZM10.8223 6.9825C9.17016 6.9825 7.82976 8.32289 7.82976 9.975C7.82976 11.6271 9.17016 12.9675 10.8223 12.9675C12.4744 12.9675 13.8148 11.6271 13.8148 9.975C13.8148 8.32289 12.4744 6.9825 10.8223 6.9825Z" fill="#5D9BF9"/>
</svg>
