<svg width="24" height="24" viewBox="0 0 24 24" fill="none" xmlns="http://www.w3.org/2000/svg">
<path d="M19.0627 4.92973C15.1567 1.02372 8.83461 1.02313 4.92805 4.92973C1.78705 8.0707 1.1935 12.7411 3.05048 16.4605L2.02098 20.9889C1.88716 21.5775 2.41468 22.1052 3.00349 21.9714L7.53193 20.9419C14.1162 24.2293 21.9902 19.47 21.9902 11.9971C21.9902 9.32745 20.9505 6.81755 19.0627 4.92973ZM14.0803 14.4859H7.82548C7.37208 14.4859 7.00453 14.1184 7.00453 13.665C7.00453 13.2116 7.37208 12.8441 7.82548 12.8441H14.0803C14.5337 12.8441 14.9012 13.2116 14.9012 13.665C14.9012 14.1184 14.5337 14.4859 14.0803 14.4859ZM16.1652 11.1501H7.82548C7.37208 11.1501 7.00453 10.7825 7.00453 10.3291C7.00453 9.87572 7.37208 9.50817 7.82548 9.50817H16.1652C16.6186 9.50817 16.9862 9.87572 16.9862 10.3291C16.9862 10.7825 16.6186 11.1501 16.1652 11.1501Z" fill="#5D9BF9"/>
</svg>
