<svg width="11" height="9" viewBox="0 0 11 9" fill="none" xmlns="http://www.w3.org/2000/svg">
<path d="M6.16575 7.99105C5.90318 8.34743 5.49428 8.56646 5.05218 8.58823C4.61007 8.61022 4.18188 8.43203 3.88564 8.10303L1.23098 5.15708C0.809073 4.68916 0.846551 3.96788 1.31447 3.54597C1.78283 3.12406 2.50367 3.16176 2.92558 3.6299L4.80374 5.71431C4.83157 5.74528 4.87197 5.76189 4.91348 5.75987C4.95523 5.75785 4.99338 5.73698 5.01829 5.70376L8.87876 0.467829C9.25242 -0.0393592 9.96652 -0.147305 10.4739 0.226578C10.9809 0.600461 11.0886 1.31456 10.7147 1.82153L6.16575 7.99105Z" fill="white"/>
</svg>
