<svg width="24" height="24" viewBox="0 0 24 24" fill="none" xmlns="http://www.w3.org/2000/svg">
<path d="M19.7778 21.2051H12.9401C12.4273 21.2051 12.0854 21.547 12.0854 22.0598C12.0854 22.5726 12.4273 22.9145 12.9401 22.9145H19.7778C20.2906 22.9145 20.6325 22.5726 20.6325 22.0598C20.6325 21.547 20.2051 21.2051 19.7778 21.2051Z" fill="#5D9BF9"/>
<path d="M11.4017 7.44434L2.25641 16.5896C2.08547 16.7606 2 16.9315 2 17.1879L2.08547 22.0597C2.08547 22.4871 2.42735 22.9144 2.94017 22.9144L7.81197 22.9999C8.06838 22.9999 8.23932 22.9144 8.41026 22.7435L17.5556 13.5982L11.4017 7.44434Z" fill="#5D9BF9"/>
<path d="M21.7437 8.21367L16.7864 3.25641C16.4445 2.91453 15.9317 2.91453 15.5898 3.25641L12.5984 6.24786L18.7522 12.4017L21.7437 9.41026C22.0856 9.06838 22.0856 8.55555 21.7437 8.21367Z" fill="#5D9BF9"/>
</svg>
