<svg width="18" height="18" viewBox="0 0 18 18" fill="none" xmlns="http://www.w3.org/2000/svg">
<path fill-rule="evenodd" clip-rule="evenodd" d="M9.00094 3.48C10.6909 3.48 11.8309 4.21 12.4809 4.82L15.0209 2.34C13.4609 0.89 11.4309 0 9.00094 0C5.48094 0 2.44094 2.02 0.960938 4.96L3.87094 7.22C4.60094 5.05 6.62094 3.48 9.00094 3.48Z" fill="#EA4335"/>
<path fill-rule="evenodd" clip-rule="evenodd" d="M17.64 9.19938C17.64 8.45938 17.58 7.91938 17.45 7.35938H9V10.6994H13.96C13.86 11.5294 13.32 12.7794 12.12 13.6194L14.96 15.8194C16.66 14.2494 17.64 11.9394 17.64 9.19938Z" fill="#4285F4"/>
<path fill-rule="evenodd" clip-rule="evenodd" d="M3.88 10.7809C3.69 10.2209 3.58 9.62094 3.58 9.00094C3.58 8.38094 3.69 7.78094 3.87 7.22094L0.96 4.96094C0.35 6.18094 0 7.55094 0 9.00094C0 10.4509 0.35 11.8209 0.96 13.0409L3.88 10.7809Z" fill="#FBBC05"/>
<path fill-rule="evenodd" clip-rule="evenodd" d="M8.99875 17.9993C11.4288 17.9993 13.4688 17.1993 14.9587 15.8193L12.1187 13.6193C11.3587 14.1493 10.3387 14.5193 8.99875 14.5193C6.61875 14.5193 4.59875 12.9493 3.87875 10.7793L0.96875 13.0393C2.44875 15.9793 5.47875 17.9993 8.99875 17.9993Z" fill="#34A853"/>
</svg>
