<svg width="33" height="29" viewBox="0 0 33 29" fill="none" xmlns="http://www.w3.org/2000/svg">
<path fill-rule="evenodd" clip-rule="evenodd" d="M17.4876 3.24262C20.8475 -0.117333 26.3146 -0.117271 29.6746 3.24262C31.2964 4.86441 32.1896 7.02846 32.1895 9.33612C32.1895 10.6594 31.8953 11.9353 31.3388 13.089C31.2754 13.2207 31.1438 13.3058 30.9977 13.3058H24.3748L22.4588 9.83882C22.4563 9.83436 22.4536 9.83015 22.4508 9.82592C22.4486 9.82242 22.4463 9.81891 22.4442 9.81525C22.4329 9.79584 22.421 9.77681 22.4087 9.75802C22.3989 9.74334 22.3891 9.72898 22.3789 9.71486C22.3662 9.6975 22.353 9.68052 22.3395 9.66379C22.3279 9.64955 22.3162 9.63537 22.304 9.62174C22.2906 9.60669 22.2766 9.59214 22.2624 9.57771C22.2488 9.56384 22.235 9.55009 22.2207 9.53703C22.2068 9.52428 22.1924 9.51196 22.1778 9.49977C22.1619 9.48646 22.1458 9.47346 22.1293 9.46108C22.115 9.45045 22.1004 9.44025 22.0857 9.43017C22.0674 9.41767 22.0488 9.40566 22.0299 9.39422C22.0156 9.38551 22.0009 9.3773 21.9862 9.36915C21.9657 9.35789 21.945 9.34732 21.9239 9.33737C21.9204 9.33569 21.917 9.33387 21.9136 9.33205C21.9093 9.32975 21.905 9.32744 21.9005 9.32543C21.8974 9.32402 21.8943 9.32281 21.8912 9.32166C21.8868 9.32004 21.8825 9.31853 21.8782 9.31672C21.8577 9.30801 21.8369 9.30005 21.816 9.29252C21.7986 9.28624 21.7811 9.28008 21.7636 9.27467C21.7451 9.26901 21.7265 9.26403 21.7079 9.25924C21.6878 9.25402 21.6677 9.24898 21.6476 9.24494C21.633 9.24198 21.6182 9.23963 21.6034 9.23728L21.5965 9.23617L21.5929 9.23561C21.5727 9.2325 21.5525 9.22939 21.5323 9.22734C21.518 9.2259 21.5037 9.22505 21.4893 9.22421C21.4863 9.22403 21.4832 9.22385 21.4802 9.22367L21.4743 9.22333C21.4554 9.22225 21.4367 9.22117 21.4179 9.22112C21.4001 9.22106 21.3822 9.22182 21.3643 9.22258L21.3606 9.22273C21.3416 9.22348 21.3228 9.22423 21.3041 9.22591C21.2832 9.22777 21.2624 9.23075 21.2416 9.23373L21.2415 9.23374C21.2244 9.23611 21.2073 9.23847 21.1904 9.24164C21.1692 9.24562 21.1481 9.25066 21.127 9.25582L21.1208 9.25736C21.1061 9.261 21.0914 9.26462 21.0768 9.26882C21.0571 9.27455 21.0375 9.2812 21.018 9.28804C20.9998 9.29445 20.9817 9.30092 20.9638 9.30807C20.9468 9.31504 20.9299 9.3225 20.9131 9.33028C20.8928 9.33954 20.8728 9.34919 20.853 9.35957C20.8498 9.36129 20.8465 9.36281 20.8432 9.36433C20.8393 9.36612 20.8354 9.36791 20.8316 9.37002C20.8273 9.37239 20.8232 9.37504 20.8191 9.3777C20.8159 9.37979 20.8127 9.38188 20.8093 9.38383C20.7892 9.39552 20.7693 9.40784 20.7498 9.42078C20.7359 9.43011 20.7221 9.4395 20.7086 9.44926C20.6906 9.46226 20.673 9.47582 20.6558 9.48988C20.642 9.50108 20.6284 9.5124 20.6152 9.52415C20.5997 9.5379 20.5847 9.55227 20.5699 9.56688C20.5564 9.58019 20.543 9.59369 20.5302 9.60756C20.517 9.62181 20.5045 9.63661 20.4919 9.6516C20.479 9.66715 20.4663 9.68289 20.4542 9.699C20.4432 9.71361 20.4328 9.72854 20.4224 9.74372C20.4102 9.76163 20.3984 9.77973 20.3872 9.79827C20.3784 9.81295 20.3698 9.82794 20.3615 9.84311C20.3506 9.86326 20.3402 9.88354 20.3304 9.90419C20.3286 9.90814 20.3265 9.91193 20.3245 9.91572C20.3223 9.91982 20.3201 9.92391 20.3182 9.9282L18.2675 14.5028L17.1943 13.3022C17.1888 13.296 17.1829 13.2903 17.177 13.2846C17.1731 13.2807 17.1691 13.2769 17.1652 13.2729C17.1615 13.2689 17.1579 13.2649 17.1543 13.2609C17.1493 13.2552 17.1442 13.2496 17.1387 13.2442C17.1362 13.2418 17.1336 13.2395 17.131 13.2373C17.1287 13.2353 17.1263 13.2333 17.1241 13.2312C17.1076 13.2156 17.0907 13.201 17.0736 13.1866C17.06 13.175 17.0464 13.1634 17.0324 13.1525C17.0147 13.1389 16.9966 13.1263 16.9784 13.1138C16.9637 13.1037 16.949 13.0934 16.9339 13.084C16.916 13.0728 16.8977 13.0627 16.8793 13.0525L16.8776 13.0516C16.8618 13.0429 16.8461 13.0342 16.83 13.0263C16.814 13.0185 16.7978 13.0114 16.7816 13.0044L16.7762 13.002C16.7582 12.9943 16.7404 12.9865 16.7222 12.9797C16.7049 12.9732 16.6873 12.9676 16.6698 12.962L16.6688 12.9617L16.6679 12.9614C16.6492 12.9553 16.6306 12.9493 16.6117 12.9443C16.5957 12.94 16.5796 12.9365 16.5635 12.933L16.5577 12.9318C16.5382 12.9275 16.5187 12.9232 16.4991 12.9199C16.4837 12.9174 16.4682 12.9155 16.4527 12.9137C16.4498 12.9133 16.4468 12.913 16.4438 12.9126C16.4244 12.9102 16.405 12.9079 16.3854 12.9065C16.3663 12.9053 16.3473 12.9048 16.3282 12.9044C16.3092 12.904 16.2903 12.9035 16.2713 12.9039C16.2516 12.9046 16.2319 12.9061 16.2122 12.9075C16.2096 12.9077 16.2069 12.9079 16.2043 12.9081C16.1885 12.9092 16.1728 12.9104 16.1571 12.9123C16.1371 12.9147 16.1174 12.9181 16.0975 12.9216C16.0795 12.9247 16.0615 12.9276 16.0437 12.9315C16.0252 12.9356 16.0068 12.9406 15.9885 12.9456L15.9853 12.9464C15.9825 12.9472 15.9796 12.948 15.9767 12.9488C15.9616 12.953 15.9465 12.9571 15.9316 12.9619C15.913 12.968 15.8947 12.975 15.8763 12.9819C15.8581 12.9889 15.8399 12.9958 15.8219 13.0036C15.806 13.0105 15.7903 13.0183 15.7746 13.0261L15.7709 13.0279C15.7523 13.0371 15.7339 13.0463 15.7157 13.0565C15.7026 13.0637 15.6899 13.0717 15.6772 13.0796C15.6745 13.0813 15.6719 13.0829 15.6692 13.0846C15.6506 13.0962 15.6322 13.1078 15.6142 13.1205C15.6021 13.129 15.5905 13.138 15.5787 13.1471C15.5762 13.149 15.5737 13.151 15.5711 13.1529C15.5535 13.1666 15.5359 13.1804 15.5189 13.1951C15.5166 13.1971 15.5142 13.199 15.5118 13.2009C15.509 13.203 15.5063 13.2051 15.5036 13.2075C15.4978 13.2127 15.4924 13.2182 15.487 13.2237C15.4834 13.2275 15.4797 13.2312 15.476 13.2349C15.4717 13.239 15.4673 13.2429 15.4628 13.2468C15.457 13.2521 15.4511 13.2573 15.4455 13.263L14.2044 14.5321L12.8452 10.0018C12.8448 10.0003 12.8443 9.99884 12.8437 9.99737C12.8428 9.99483 12.8418 9.99234 12.8409 9.98978C12.8348 9.97 12.8275 9.95062 12.8202 9.93119L12.8178 9.92478C12.816 9.91995 12.8142 9.91509 12.8125 9.91024C12.8084 9.8991 12.8044 9.88798 12.7998 9.8772C12.7933 9.86195 12.7859 9.84706 12.7786 9.83218C12.7768 9.82867 12.7751 9.82516 12.7734 9.82165C12.7712 9.81707 12.769 9.81247 12.7668 9.80787C12.7609 9.79524 12.7549 9.78263 12.7483 9.77046C12.7423 9.75968 12.7358 9.74921 12.7293 9.73874C12.7262 9.73382 12.7232 9.72889 12.7201 9.72394C12.7176 9.71966 12.715 9.71535 12.7124 9.71105C12.7043 9.69747 12.6962 9.68387 12.6874 9.67088C12.6807 9.66116 12.6735 9.65182 12.6663 9.64248C12.6625 9.63753 12.6587 9.63259 12.655 9.62759C12.6513 9.62278 12.6478 9.61794 12.6442 9.61309C12.6355 9.60137 12.6269 9.58965 12.6176 9.57852C12.6088 9.56794 12.5993 9.55787 12.5898 9.5478C12.5857 9.54342 12.5816 9.53903 12.5775 9.5346C12.5741 9.5309 12.5708 9.52717 12.5674 9.52343C12.5582 9.5132 12.549 9.50296 12.5392 9.4933C12.5288 9.48309 12.5178 9.47346 12.5068 9.46381C12.5025 9.46012 12.4983 9.45642 12.4941 9.45269C12.4898 9.44887 12.4856 9.44499 12.4813 9.44112C12.4718 9.43244 12.4622 9.42374 12.4521 9.41562C12.4415 9.40704 12.4303 9.399 12.4191 9.39096C12.4151 9.3881 12.4111 9.38523 12.4072 9.38234C12.4038 9.37985 12.4004 9.37735 12.397 9.37485C12.3837 9.36495 12.3703 9.35502 12.3564 9.34589C12.3472 9.33987 12.3376 9.33426 12.328 9.32865C12.3231 9.32579 12.3182 9.32293 12.3134 9.32001L12.3125 9.31949C12.2929 9.30772 12.2733 9.29591 12.253 9.28531C12.2512 9.28436 12.2495 9.28333 12.2478 9.2823C12.2459 9.28117 12.244 9.28004 12.242 9.27902C12.2356 9.27578 12.2291 9.27301 12.2226 9.27025C12.2176 9.26814 12.2126 9.26604 12.2077 9.26372L12.2041 9.26202C12.1847 9.25295 12.1654 9.24388 12.1455 9.23586C12.1283 9.22895 12.111 9.22304 12.0937 9.21695C12.0744 9.21011 12.055 9.20345 12.0353 9.19761C12.0165 9.19207 11.9976 9.1874 11.9786 9.18286C11.9599 9.17832 11.9412 9.17385 11.9222 9.17024C11.9025 9.16651 11.8828 9.16358 11.863 9.16085C11.8442 9.15823 11.8254 9.15574 11.8064 9.154C11.7865 9.1522 11.7667 9.15127 11.7468 9.15046C11.7278 9.14965 11.7088 9.14896 11.6896 9.14915C11.6695 9.14934 11.6494 9.1504 11.6293 9.15158C11.6106 9.1527 11.592 9.15382 11.5732 9.15581C11.552 9.15798 11.5311 9.16128 11.5101 9.16464C11.5073 9.16509 11.5045 9.16553 11.5017 9.16597C11.4871 9.1683 11.4724 9.17063 11.4577 9.17366C11.4349 9.17839 11.4124 9.18423 11.3899 9.19033C11.3847 9.19172 11.3795 9.1929 11.3744 9.19408C11.3678 9.19558 11.3611 9.19708 11.3546 9.19904C11.3506 9.20028 11.3469 9.2019 11.3429 9.2032C11.3231 9.20935 11.3035 9.21671 11.284 9.22404C11.2814 9.22502 11.2788 9.22599 11.2762 9.22696C11.2708 9.22904 11.2653 9.23104 11.2598 9.23304C11.2499 9.23668 11.2399 9.24032 11.2303 9.24438C11.2146 9.25105 11.1994 9.25857 11.1841 9.26609C11.1802 9.26805 11.1762 9.27 11.1723 9.27193C11.167 9.27452 11.1617 9.27704 11.1564 9.27956C11.1454 9.2848 11.1344 9.29004 11.1237 9.29588C11.1112 9.30272 11.0991 9.31028 11.087 9.31785C11.0823 9.32074 11.0777 9.32363 11.073 9.32648C11.0681 9.3295 11.0631 9.33247 11.0582 9.33543C11.0467 9.34231 11.0351 9.34919 11.0241 9.35671C11.0117 9.36509 10.9999 9.37424 10.988 9.3834C10.9837 9.38675 10.9794 9.3901 10.975 9.39341C10.9703 9.39704 10.9654 9.40061 10.9606 9.40418C10.9509 9.41137 10.9411 9.41858 10.9319 9.42631C10.9187 9.43733 10.9061 9.44914 10.8936 9.46097C10.8897 9.4647 10.8857 9.46844 10.8817 9.47215C10.8776 9.47603 10.8733 9.47985 10.8691 9.48367C10.8615 9.49051 10.8539 9.49736 10.8468 9.50462C10.8342 9.51735 10.8224 9.53089 10.8105 9.54445C10.8073 9.54811 10.8041 9.55178 10.8009 9.55544C10.7973 9.55955 10.7936 9.56363 10.7899 9.56771C10.7828 9.57554 10.7757 9.5834 10.769 9.59158C10.759 9.6039 10.7496 9.61697 10.7402 9.63003C10.7375 9.63379 10.7348 9.63754 10.7321 9.64127C10.729 9.64553 10.7259 9.64976 10.7228 9.654C10.7147 9.66492 10.7066 9.67584 10.6992 9.68718C10.6919 9.69827 10.6852 9.70982 10.6784 9.72137C10.6759 9.72564 10.6734 9.7299 10.6709 9.73414C10.6694 9.73676 10.6678 9.73938 10.6662 9.742C10.6567 9.75802 10.6472 9.77403 10.6385 9.79055C10.6375 9.79237 10.6365 9.79413 10.6354 9.79588C10.6341 9.79802 10.6329 9.80015 10.6317 9.80237L8.80655 13.3854H1.57437C1.43013 13.3854 1.29938 13.3026 1.23526 13.1733C0.652135 11.9976 0.34375 10.6916 0.34375 9.33594C0.34375 7.02833 1.23694 4.86429 2.85835 3.24262C6.21831 -0.117333 11.6854 -0.117333 15.0454 3.24262L16.2665 4.46372L17.4876 3.24262ZM23.7066 15.7005H28.495C28.8304 15.7005 28.9985 16.1061 28.7613 16.3437L18.2896 26.8155C17.871 27.2342 17.4088 27.6097 16.916 27.9317C16.714 28.0637 16.4868 28.1269 16.2622 28.1269C15.9906 28.1269 15.724 28.0327 15.5088 27.8584C15.0571 27.553 14.6318 27.2029 14.2445 26.8155L3.85249 16.4235C3.61526 16.1863 3.78326 15.7807 4.11871 15.7807H9.53504L9.53977 15.7809C9.57715 15.7809 9.61428 15.7785 9.65123 15.7751L9.67555 15.7726C9.70808 15.7689 9.74049 15.7643 9.77252 15.7579C9.77671 15.7571 9.78085 15.7562 9.78499 15.7553C9.7878 15.7547 9.7906 15.7541 9.79342 15.7535C9.82222 15.7472 9.85064 15.7398 9.87888 15.7315C9.89144 15.7278 9.90401 15.7238 9.91645 15.7197C9.93946 15.712 9.9621 15.7036 9.98462 15.6947C9.98847 15.6931 9.99235 15.6917 9.99622 15.6902C10.0017 15.6882 10.0071 15.6861 10.0124 15.6839C10.0422 15.6711 10.0714 15.6567 10.1001 15.6416C10.1072 15.6378 10.1142 15.6339 10.1212 15.6299C10.1231 15.6288 10.125 15.6278 10.1269 15.6267C10.1513 15.6131 10.175 15.5986 10.1984 15.5833C10.2002 15.5821 10.202 15.5809 10.2039 15.5797C10.2074 15.5775 10.211 15.5752 10.2146 15.5728C10.2443 15.5526 10.2731 15.5311 10.301 15.5082L10.3053 15.5045C10.3314 15.4828 10.3566 15.4597 10.381 15.4356L10.392 15.4247C10.4415 15.3747 10.487 15.3199 10.5277 15.2604C10.5302 15.2568 10.5326 15.2532 10.5349 15.2496C10.5377 15.2452 10.5405 15.2408 10.5433 15.2365C10.5565 15.216 10.5694 15.1951 10.5815 15.1735C10.5879 15.1624 10.5941 15.1514 10.6001 15.14C10.6012 15.1379 10.6024 15.1358 10.6036 15.1337C10.6049 15.1314 10.6063 15.1291 10.6075 15.1267L11.4102 13.5509L12.4946 17.1653L12.4954 17.1679C12.4983 17.1775 12.5018 17.187 12.5052 17.1964C12.5071 17.2017 12.509 17.2071 12.5109 17.2124C12.5176 17.2319 12.5243 17.2515 12.5319 17.2705C12.5366 17.2821 12.5418 17.2936 12.547 17.305C12.5483 17.3078 12.5496 17.3107 12.5509 17.3135C12.5598 17.3331 12.5689 17.3527 12.5787 17.3716C12.5852 17.3841 12.592 17.3965 12.599 17.4089C12.6112 17.4306 12.6241 17.4517 12.6375 17.4723C12.6386 17.474 12.6396 17.4757 12.6407 17.4774C12.6457 17.4851 12.6506 17.4928 12.6558 17.5004C12.6761 17.5299 12.6974 17.5584 12.72 17.5857L12.7214 17.5875C12.7466 17.6176 12.7732 17.6462 12.801 17.6735L12.8044 17.6772C12.8062 17.679 12.8082 17.6806 12.8101 17.6823C12.8118 17.6837 12.8136 17.6852 12.8152 17.6867C12.8369 17.7075 12.8592 17.7272 12.8823 17.7461C12.8915 17.7537 12.9009 17.7611 12.9103 17.7684C12.9293 17.783 12.9487 17.7969 12.9684 17.8103C12.9797 17.8181 12.9909 17.826 13.0025 17.8333C13.0229 17.8463 13.044 17.8581 13.0651 17.8697C13.0838 17.8799 13.1024 17.8895 13.1213 17.8987C13.1426 17.9089 13.1638 17.9191 13.1855 17.928C13.1962 17.9324 13.2072 17.9364 13.2182 17.9403C13.2216 17.9416 13.2251 17.9429 13.2286 17.9441C13.2478 17.9512 13.2672 17.9581 13.2869 17.9642C13.3004 17.9684 13.314 17.9723 13.3278 17.976C13.35 17.982 13.3724 17.9874 13.395 17.9921C13.3997 17.9931 13.4043 17.9941 13.409 17.9951C13.4156 17.9965 13.4222 17.9978 13.4288 17.999C13.4571 18.0041 13.4857 18.0081 13.5145 18.0112C13.5169 18.0114 13.5193 18.0118 13.5216 18.0121C13.5251 18.0125 13.5286 18.013 13.5322 18.0134C13.5683 18.0166 13.6045 18.0188 13.6411 18.0188C13.6768 18.0188 13.7129 18.0165 13.749 18.0132C13.7568 18.0125 13.7645 18.0115 13.7723 18.0107C13.7994 18.0076 13.8266 18.0036 13.8538 17.9987C13.8557 17.9983 13.8576 17.998 13.8596 17.9977C13.868 17.9962 13.8763 17.9948 13.8847 17.993C13.9143 17.9868 13.9437 17.9795 13.9732 17.9711C14.0541 17.9479 14.133 17.9164 14.2085 17.8758C14.2257 17.8666 14.242 17.8564 14.2584 17.8461C14.2627 17.8434 14.2669 17.8408 14.2712 17.8381C14.2762 17.8351 14.2812 17.8322 14.2861 17.8293C14.294 17.8248 14.3018 17.8202 14.3094 17.8151C14.3772 17.7695 14.4393 17.7174 14.4956 17.66L14.4976 17.6581L16.263 15.8529L17.7129 17.475C17.7147 17.477 17.7168 17.4786 17.7185 17.4806C17.7423 17.5069 17.7676 17.5319 17.7938 17.5562C17.7961 17.5582 17.7982 17.5604 17.8004 17.5626C17.8028 17.5651 17.8053 17.5675 17.8078 17.5698C17.8382 17.5969 17.8701 17.6229 17.9036 17.6471C17.9118 17.6529 17.9202 17.6582 17.9286 17.6635C17.9339 17.6669 17.9393 17.6702 17.9445 17.6737C17.9489 17.6766 17.9533 17.6796 17.9577 17.6825C17.974 17.6934 17.9903 17.7043 18.0076 17.7143C18.0355 17.7303 18.0643 17.7443 18.0933 17.758C18.0979 17.7601 18.1023 17.7626 18.1068 17.765C18.1097 17.7665 18.1127 17.7681 18.1158 17.7695L18.1175 17.7701C18.1504 17.7848 18.1839 17.7972 18.2177 17.8088C18.221 17.8099 18.2242 17.8112 18.2275 17.8124C18.2309 17.8138 18.2344 17.8152 18.2379 17.8164C18.2538 17.8215 18.27 17.8255 18.2861 17.8296C18.2921 17.8311 18.298 17.8326 18.3039 17.8341C18.4038 17.8603 18.5046 17.8746 18.6049 17.8746C18.6386 17.8746 18.6723 17.8727 18.7057 17.8699C18.7133 17.8692 18.7209 17.8682 18.7285 17.8674C18.7528 17.8648 18.777 17.8616 18.8011 17.8576C18.8127 17.8557 18.824 17.8536 18.8355 17.8514C18.8559 17.8474 18.8761 17.8427 18.8962 17.8376C18.9087 17.8345 18.9212 17.8316 18.9336 17.8281C18.9583 17.821 18.9828 17.813 19.0071 17.8044C19.0228 17.7988 19.0384 17.7925 19.054 17.7862L19.0553 17.7857C19.0737 17.7783 19.092 17.7707 19.11 17.7623C19.123 17.7563 19.1357 17.7498 19.1484 17.7433C19.1665 17.7341 19.1844 17.7245 19.202 17.7144C19.2045 17.7129 19.207 17.7115 19.2095 17.7101C19.2175 17.7054 19.2256 17.7008 19.2336 17.6958C19.292 17.6599 19.3474 17.6188 19.3993 17.5729L19.4033 17.5696C19.4056 17.5676 19.4075 17.5653 19.4098 17.5632C19.435 17.5403 19.4593 17.5163 19.4827 17.4911L19.4945 17.4785C19.5191 17.4511 19.5429 17.4228 19.5651 17.3928C19.5671 17.3902 19.569 17.3875 19.5708 17.3848C19.572 17.383 19.5733 17.3811 19.5745 17.3794C19.5915 17.356 19.6077 17.3318 19.623 17.307C19.6303 17.2951 19.6373 17.2833 19.6441 17.2712C19.6545 17.253 19.6644 17.2344 19.6739 17.2155C19.6757 17.2118 19.6776 17.2082 19.6794 17.2046C19.6843 17.1949 19.6892 17.1852 19.6937 17.1753L19.698 17.1666L21.5229 13.0954L22.5788 15.0059C22.6498 15.1345 22.7414 15.2445 22.8467 15.335C23.0644 15.56 23.3689 15.7003 23.7066 15.7003V15.7005Z" fill="#5D9BF9"/>
</svg>
