<svg width="16" height="21" viewBox="0 0 16 21" fill="none" xmlns="http://www.w3.org/2000/svg">
<path d="M14.6142 8.55828H13.2767V5.88326C13.2767 4.46433 12.713 3.10353 11.7097 2.1002C10.7064 1.09687 9.34556 0.533203 7.92664 0.533203C6.50771 0.533203 5.14691 1.09687 4.14358 2.1002C3.14025 3.10353 2.57658 4.46433 2.57658 5.88326V8.55828H1.23907C1.0617 8.55828 0.891603 8.62874 0.766187 8.75416C0.640771 8.87957 0.570312 9.04967 0.570312 9.22704V19.9271C0.570312 20.1045 0.640771 20.2746 0.766187 20.4C0.891603 20.5254 1.0617 20.5959 1.23907 20.5959H14.6142C14.7916 20.5959 14.9617 20.5254 15.0871 20.4C15.2125 20.2746 15.283 20.1045 15.283 19.9271V9.22704C15.283 9.04967 15.2125 8.87957 15.0871 8.75416C14.9617 8.62874 14.7916 8.55828 14.6142 8.55828ZM7.92664 16.5834C7.52983 16.5834 7.14194 16.4657 6.81201 16.2452C6.48208 16.0248 6.22493 15.7115 6.07308 15.3449C5.92123 14.9783 5.8815 14.5749 5.95892 14.1857C6.03633 13.7965 6.22741 13.439 6.50799 13.1584C6.78857 12.8779 7.14605 12.6868 7.53523 12.6094C7.92441 12.532 8.3278 12.5717 8.6944 12.7235C9.061 12.8754 9.37434 13.1325 9.59479 13.4625C9.81524 13.7924 9.93291 14.1803 9.93291 14.5771C9.93291 15.1092 9.72153 15.6195 9.34528 15.9957C8.96903 16.372 8.45873 16.5834 7.92664 16.5834ZM11.9392 8.55828H3.9141V5.88326C3.9141 4.81906 4.33684 3.79846 5.08934 3.04596C5.84184 2.29346 6.86244 1.87072 7.92664 1.87072C8.99083 1.87072 10.0114 2.29346 10.7639 3.04596C11.5164 3.79846 11.9392 4.81906 11.9392 5.88326V8.55828Z" fill="#5D9BF9"/>
</svg>
