<svg width="63" height="61" viewBox="0 0 63 61" fill="none" xmlns="http://www.w3.org/2000/svg">
<path d="M55.2181 27.3631L62.4092 23.0196C62.3447 22.8623 62.269 22.7096 62.1828 22.5627C61.8999 22.0678 61.5185 21.6341 61.0616 21.2877L55.2181 16.9209L40.0381 5.56275L34.1084 1.13213C33.3567 0.573594 32.4408 0.271484 31.4994 0.271484C30.5579 0.271484 29.6421 0.573594 28.8903 1.13213L22.9606 5.56275L7.78063 16.9209L1.93719 21.2877C1.48023 21.6341 1.09887 22.0678 0.815937 22.5627C0.631166 22.8631 0.493072 23.189 0.40625 23.5296L30.9538 41.794L55.2181 27.3631Z" fill="#91BCFF"/>
<path d="M55.2188 16.9206V7.6875C55.2188 7.12392 54.9916 6.58341 54.5872 6.1849C54.1828 5.78638 53.6344 5.5625 53.0625 5.5625H9.9375C9.36563 5.5625 8.81718 5.78638 8.4128 6.1849C8.00843 6.58341 7.78125 7.12392 7.78125 7.6875V27.9377L30.9545 41.7938L55.2188 27.3629V16.9206Z" fill="#E8EDFF"/>
<path d="M30.9531 41.791L61.1686 59.8556L30.9531 41.791Z" fill="#508FEF"/>
<path d="M55.2188 27.363L62.4099 23.0195L55.2188 27.363Z" fill="#508FEF"/>
<path d="M55.2174 27.363L30.9531 41.7939L61.1687 59.8564C61.6686 59.4608 62.0717 58.9592 62.348 58.389C62.6242 57.8188 62.7665 57.1945 62.7643 56.5627V24.677C62.7671 24.1058 62.6458 23.5407 62.4085 23.0195L55.2174 27.363Z" fill="#508FEF"/>
<path d="M7.78138 27.9387L0.407001 23.5293C0.289482 23.9007 0.231286 24.2878 0.234501 24.6768V56.5624C0.234501 57.6896 0.688852 58.7706 1.4976 59.5676C2.30635 60.3647 3.40326 60.8124 4.547 60.8124H58.4533C59.4434 60.8105 60.4028 60.4729 61.1701 59.8562L7.78138 27.9376V27.9387Z" fill="#5D9BF9"/>
<path d="M62.4107 23.0195L55.2196 27.363V48.0627C55.2201 49.286 54.9518 50.495 54.4331 51.6065C53.9144 52.7179 53.1576 53.7056 52.2148 54.5014L61.1708 59.8564C61.6708 59.4608 62.0739 58.9592 62.3501 58.389C62.6264 57.8188 62.7687 57.1945 62.7665 56.5627V24.677C62.7693 24.1058 62.648 23.5407 62.4107 23.0195Z" fill="#508FEF"/>
<path d="M46.5938 56.5632H0.234375C0.234375 57.6904 0.688726 58.7714 1.49748 59.5684C2.30623 60.3654 3.40313 60.8132 4.54688 60.8132H58.4531C59.4433 60.8113 60.4026 60.4736 61.17 59.857L52.214 54.502C50.6529 55.8325 48.6577 56.5642 46.5938 56.5632Z" fill="#508FEF"/>
</svg>
