<svg width="36" height="36" viewBox="0 0 36 36" fill="none" xmlns="http://www.w3.org/2000/svg">
<path fill-rule="evenodd" clip-rule="evenodd" d="M18.378 34.464C10.7755 34.2948 5.23828 29.3518 5.23828 23.0681C5.23828 17.7262 7.98279 14.1351 12.1052 9.85833C14.7966 7.06623 15.819 4.45856 16.4977 2.72747C16.8586 1.807 17.1224 1.13436 17.4881 0.813626C18.5419 -0.110315 24.1948 6.10652 25.7469 8.35418C29.6436 13.997 31.0314 16.6107 31.0864 22.7904C31.1413 28.9701 25.9806 34.6331 18.378 34.464ZM19.7298 22.1561L19.7295 22.1556C18.8559 21.0309 17.967 19.8863 17.3805 18.6695C16.8248 19.4359 16.2201 20.3532 15.6491 21.3877C14.216 23.9849 13.4893 26.4201 13.4893 28.6257C13.4893 31.437 15.5998 33.724 18.1939 33.724C20.788 33.724 22.8984 31.437 22.8984 28.6257C22.8984 26.2361 21.2876 24.162 19.7298 22.1561Z" fill="#5D9BF9"/>
</svg>
