<svg width="14" height="14" viewBox="0 0 14 14" fill="none" xmlns="http://www.w3.org/2000/svg">
<path fill-rule="evenodd" clip-rule="evenodd" d="M13.85 6.62446C13.85 10.2746 10.891 13.2335 7.24092 13.2335C3.59082 13.2335 0.631836 10.2746 0.631836 6.62446C0.631836 2.97437 3.59082 0.0153809 7.24092 0.0153809C10.891 0.0153809 13.85 2.97437 13.85 6.62446ZM3.11021 6.62444C3.11021 8.90575 4.95958 10.7551 7.24089 10.7551C9.52219 10.7551 11.3716 8.90575 11.3716 6.62444C11.3716 4.34313 9.52219 2.49376 7.24089 2.49376C4.95958 2.49376 3.11021 4.34313 3.11021 6.62444Z" fill="white"/>
<path d="M7.24103 10.755C4.95972 10.755 3.11035 8.90564 3.11035 6.62433C3.11035 4.34302 4.95972 2.49365 7.24103 2.49365C9.52234 2.49365 11.3717 4.34302 11.3717 6.62433C11.3717 8.90564 9.52234 10.755 7.24103 10.755Z" fill="#42B72A"/>
</svg>
