<svg width="23" height="23" viewBox="0 0 23 23" fill="none" xmlns="http://www.w3.org/2000/svg">
<path d="M11.5 0C5.15865 0 0 5.15865 0 11.5C0 17.8414 5.15865 23 11.5 23C17.8414 23 23 17.8414 23 11.5C23 5.15865 17.8414 0 11.5 0ZM16.5312 12.4583H12.4583V16.5312C12.4583 17.0603 12.0291 17.4895 11.5 17.4895C10.9709 17.4895 10.5417 17.0603 10.5417 16.5312V12.4583H6.46875C5.93969 12.4583 5.51048 12.0291 5.51048 11.5C5.51048 10.9709 5.93969 10.5417 6.46875 10.5417H10.5417V6.46875C10.5417 5.93969 10.9709 5.51048 11.5 5.51048C12.0291 5.51048 12.4583 5.93969 12.4583 6.46875V10.5417H16.5312C17.0603 10.5417 17.4895 10.9709 17.4895 11.5C17.4895 12.0291 17.0603 12.4583 16.5312 12.4583Z" fill="#5D9BF9"/>
</svg>
