<svg width="22" height="22" viewBox="0 0 22 22" fill="none" xmlns="http://www.w3.org/2000/svg">
<path fill-rule="evenodd" clip-rule="evenodd" d="M15.82 4H19C19.7949 4.00237 20.5566 4.31921 21.1187 4.8813C21.6808 5.4434 21.9976 6.20508 22 7V9C22 9.26522 21.8946 9.51957 21.7071 9.70711C21.5196 9.89464 21.2652 10 21 10H12V4H13C13.1978 4 13.3911 3.94135 13.5556 3.83147C13.72 3.72159 13.8482 3.56541 13.9239 3.38268C13.9996 3.19996 14.0194 2.99889 13.9808 2.80491C13.9422 2.61093 13.847 2.43275 13.7071 2.29289C13.5673 2.15304 13.3891 2.0578 13.1951 2.01921C13.0011 1.98063 12.8 2.00043 12.6173 2.07612C12.4346 2.15181 12.2784 2.27998 12.1685 2.44443C12.0586 2.60888 12 2.80222 12 3V4H10V3C10 2.80222 9.94135 2.60888 9.83147 2.44443C9.72159 2.27998 9.56541 2.15181 9.38268 2.07612C9.19996 2.00043 8.99889 1.98063 8.80491 2.01921C8.61093 2.0578 8.43275 2.15304 8.29289 2.29289C8.15304 2.43275 8.0578 2.61093 8.01921 2.80491C7.98063 2.99889 8.00043 3.19996 8.07612 3.38268C8.15181 3.56541 8.27998 3.72159 8.44443 3.83147C8.60888 3.94135 8.80222 4 9 4H10V10H1C0.734784 10 0.48043 9.89464 0.292893 9.70711C0.105357 9.51957 0 9.26522 0 9V7C0.00237409 6.20508 0.319207 5.4434 0.881302 4.8813C1.4434 4.31921 2.20508 4.00237 3 4H6.18C6.0589 3.6806 5.99787 3.34158 6 3C6.00237 2.20508 6.31921 1.4434 6.8813 0.881302C7.4434 0.319207 8.20508 0.00237409 9 0C9.74053 0.00193127 10.4537 0.280067 11 0.78C11.5463 0.280067 12.2595 0.00193127 13 0C13.7949 0.00237409 14.5566 0.319207 15.1187 0.881302C15.6808 1.4434 15.9976 2.20508 16 3C16.0021 3.34158 15.9411 3.6806 15.82 4ZM0.999847 19C1.00222 19.7949 1.31905 20.5566 1.88115 21.1187C2.44325 21.6808 3.20493 21.9976 3.99985 22H9.99985V12H0.999847V19ZM12 22H18C18.7949 21.9976 19.5566 21.6808 20.1187 21.1187C20.6808 20.5566 20.9976 19.7949 21 19V12H12V22Z" fill="#5D9BF9"/>
</svg>
