<svg width="12" height="13" viewBox="0 0 12 13" fill="none" xmlns="http://www.w3.org/2000/svg">
<path fill-rule="evenodd" clip-rule="evenodd" d="M8.57091 8.15108L11.1107 10.8432C11.4358 11.1879 11.4346 11.7267 11.1078 12.0699C10.7553 12.4401 10.1643 12.4388 9.8135 12.0669L7.34981 9.45546L7.26713 9.51731C6.47591 10.0367 5.65109 10.2976 4.79588 10.2976C3.54549 10.2976 2.47363 9.82636 1.59066 8.8886C0.708188 7.95136 0.264832 6.82127 0.264832 5.50878C0.264832 4.196 0.708414 3.07056 1.59138 2.14322C2.47434 1.21588 3.54592 0.75 4.79588 0.75C6.04584 0.75 7.11742 1.21588 8.00038 2.14322C8.88335 3.07056 9.32693 4.196 9.32693 5.50878C9.32693 6.42519 9.08891 7.2807 8.6143 8.07134L8.57091 8.15108ZM6.81242 3.38363C6.25842 2.79921 5.5899 2.50883 4.79778 2.50883C4.00567 2.50883 3.33715 2.79921 2.78315 3.38363C2.22914 3.96804 1.95387 4.67325 1.95387 5.50883C1.95387 6.34442 2.22914 7.04963 2.78315 7.63404C3.33715 8.21846 4.00567 8.50883 4.79778 8.50883C5.5899 8.50883 6.25842 8.21846 6.81242 7.63404C7.38352 7.0316 7.66674 6.3262 7.66674 5.50883C7.66674 4.69147 7.38352 3.98607 6.81242 3.38363Z" fill="#9C9EB9"/>
</svg>
