<svg width="16" height="16" viewBox="0 0 16 16" fill="none" xmlns="http://www.w3.org/2000/svg">
<path d="M14.6951 0.697485C14.6153 0.677404 14.5305 0.666748 14.4413 0.666748C14.2968 0.666748 14.1418 0.693962 13.9808 0.747673L1.5076 4.90541C1.07677 5.04902 0.779795 5.34249 0.692884 5.71062C0.605943 6.0788 0.740235 6.47417 1.06138 6.79541C1.09281 6.82683 1.12887 6.85319 1.16838 6.87356L6.01877 9.37379L14.6951 0.697485Z" fill="currentColor"/>
<path d="M6.62695 9.98151L9.1273 14.832C9.14767 14.8714 9.174 14.9075 9.20539 14.9389C9.46346 15.197 9.76109 15.3334 10.0662 15.3334H10.0663C10.5283 15.3334 10.9226 15.0113 11.0954 14.4927L15.2532 2.0196C15.3397 1.75987 15.3554 1.51567 15.3027 1.30566L6.62695 9.98151Z" fill="currentColor"/>
</svg>
