<svg width="36" height="36" viewBox="0 0 36 36" fill="none" xmlns="http://www.w3.org/2000/svg">
<path fill-rule="evenodd" clip-rule="evenodd" d="M21.1812 9.458C16.886 8.55756 13.5287 5.20032 12.6284 0.905003C12.5179 0.377725 12.0528 0 11.5139 0C10.975 0 10.5099 0.377725 10.3994 0.905072C9.49904 5.20032 6.1418 8.55749 1.84655 9.45779C1.3192 9.56831 0.941406 10.0334 0.941406 10.5723C0.941406 11.1111 1.31913 11.5762 1.84655 11.6868C6.14173 12.5872 9.49883 15.9444 10.3992 20.2396C10.5097 20.767 10.9748 21.1448 11.5137 21.1448C12.0525 21.1448 12.5177 20.767 12.6282 20.2396C13.5286 15.9444 16.8859 12.5872 21.1812 11.687C21.7085 11.5765 22.0863 11.1114 22.0863 10.5725C22.0862 10.0336 21.7085 9.56852 21.1812 9.458ZM19.2992 28.2694C17.2755 27.8452 15.6937 26.2635 15.2694 24.2396C15.1589 23.7123 14.6939 23.3345 14.1549 23.3345C13.6161 23.3345 13.151 23.7121 13.0405 24.2395C12.6162 26.2633 11.0343 27.8451 9.01061 28.2693C8.48326 28.3798 8.10547 28.845 8.10547 29.3838C8.10547 29.9226 8.48319 30.3878 9.01061 30.4983C11.0343 30.9225 12.6161 32.5044 13.0403 34.5281C13.1508 35.0555 13.6159 35.4333 14.1548 35.4333C14.6936 35.4333 15.1588 35.0556 15.2693 34.5281C15.6936 32.5044 17.2754 30.9226 19.2992 30.4984C19.8266 30.3878 20.2044 29.9227 20.2044 29.3839C20.2044 28.845 19.8266 28.38 19.2992 28.2694ZM29.2372 12.2792C29.8106 15.0145 31.9485 17.1526 34.684 17.726C35.2113 17.8365 35.589 18.3017 35.589 18.8405C35.589 19.3793 35.2112 19.8444 34.6839 19.955C31.9485 20.5283 29.8106 22.6662 29.2371 25.4017C29.1265 25.9292 28.6614 26.3068 28.1226 26.3068C27.5837 26.3068 27.1186 25.929 27.0081 25.4017C26.4347 22.6662 24.2967 20.5283 21.5614 19.9548C21.034 19.8442 20.6562 19.3792 20.6562 18.8403C20.6562 18.3015 21.034 17.8364 21.5614 17.7259C24.2968 17.1525 26.4348 15.0145 27.0082 12.2791C27.1187 11.7517 27.5839 11.374 28.1227 11.374C28.6616 11.374 29.1267 11.7518 29.2372 12.2792Z" fill="#5D9BF9"/>
</svg>
