<svg width="7" height="6" viewBox="0 0 7 6" fill="none" xmlns="http://www.w3.org/2000/svg">
<path fill-rule="evenodd" clip-rule="evenodd" d="M0.607174 5.31482L2.81176 3.00001L0.607174 0.6852C0.461575 0.532321 0.481247 0.30216 0.651112 0.171121C0.820978 0.0400819 1.07671 0.0577866 1.22231 0.210665L3.42632 2.52487L5.63033 0.210665C5.77592 0.0577866 6.03166 0.0400819 6.20152 0.171121C6.37139 0.30216 6.39106 0.532321 6.24546 0.6852L4.04088 3.00001L6.24546 5.31482C6.39106 5.4677 6.37139 5.69786 6.20152 5.8289C6.03166 5.95994 5.77592 5.94223 5.63033 5.78936L3.42632 3.47515L1.22231 5.78936C1.07671 5.94223 0.820978 5.95994 0.651112 5.8289C0.481247 5.69786 0.461575 5.4677 0.607174 5.31482Z" fill="#4C5980"/>
</svg>