<svg width="24" height="24" viewBox="0 0 24 24" fill="none" xmlns="http://www.w3.org/2000/svg">
<path fill-rule="evenodd" clip-rule="evenodd" d="M14.2 3.2H9.79999C9.50825 3.2 9.22846 3.0841 9.02217 2.87781C8.81588 2.67152 8.69999 2.39174 8.69999 2.1C8.69999 1.80826 8.81588 1.52847 9.02217 1.32218C9.22846 1.11589 9.50825 1 9.79999 1H14.2C14.4917 1 14.7715 1.11589 14.9778 1.32218C15.1841 1.52847 15.3 1.80826 15.3 2.1C15.3 2.39174 15.1841 2.67152 14.9778 2.87781C14.7715 3.0841 14.4917 3.2 14.2 3.2ZM2.1 4.3H21.9C22.1917 4.3 22.4715 4.4159 22.6778 4.62219C22.8841 4.82848 23 5.10827 23 5.4C23 5.69174 22.8841 5.97153 22.6778 6.17782C22.4715 6.38411 22.1917 6.5 21.9 6.5H19.7V19.7C19.6998 20.5751 19.352 21.4144 18.7332 22.0332C18.1144 22.652 17.2751 22.9998 16.4 23H7.6C6.72487 22.9997 5.88565 22.652 5.26684 22.0332C4.64802 21.4144 4.30026 20.5751 4.3 19.7V6.5H2.1C1.80826 6.5 1.52847 6.38411 1.32218 6.17782C1.11589 5.97153 1 5.69174 1 5.4C1 5.10827 1.11589 4.82848 1.32218 4.62219C1.52847 4.4159 1.80826 4.3 2.1 4.3ZM10.5778 17.1778C10.7841 16.9715 10.9 16.6917 10.9 16.4V10.9C10.9 10.6083 10.7841 10.3285 10.5778 10.1222C10.3715 9.9159 10.0917 9.8 9.8 9.8C9.50826 9.8 9.22847 9.9159 9.02218 10.1222C8.81589 10.3285 8.7 10.6083 8.7 10.9V16.4C8.7 16.6917 8.81589 16.9715 9.02218 17.1778C9.22847 17.3841 9.50826 17.5 9.8 17.5C10.0917 17.5 10.3715 17.3841 10.5778 17.1778ZM14.9778 17.1778C15.1841 16.9715 15.3 16.6917 15.3 16.4V10.9C15.3 10.6083 15.1841 10.3285 14.9778 10.1222C14.7715 9.9159 14.4917 9.8 14.2 9.8C13.9083 9.8 13.6285 9.9159 13.4222 10.1222C13.2159 10.3285 13.1 10.6083 13.1 10.9V16.4C13.1 16.6917 13.2159 16.9715 13.4222 17.1778C13.6285 17.3841 13.9083 17.5 14.2 17.5C14.4917 17.5 14.7715 17.3841 14.9778 17.1778Z" fill="#5D9BF9"/>
</svg>
