<svg width="22" height="22" viewBox="0 0 22 22" fill="none" xmlns="http://www.w3.org/2000/svg">
<path fill-rule="evenodd" clip-rule="evenodd" d="M13.2 2.2H8.79999C8.50825 2.2 8.22846 2.0841 8.02217 1.87781C7.81588 1.67152 7.69999 1.39174 7.69999 1.1C7.69999 0.80826 7.81588 0.528471 8.02217 0.322182C8.22846 0.115892 8.50825 0 8.79999 0H13.2C13.4917 0 13.7715 0.115892 13.9778 0.322182C14.1841 0.528471 14.3 0.80826 14.3 1.1C14.3 1.39174 14.1841 1.67152 13.9778 1.87781C13.7715 2.0841 13.4917 2.2 13.2 2.2ZM1.1 3.3H20.9C21.1917 3.3 21.4715 3.4159 21.6778 3.62219C21.8841 3.82848 22 4.10827 22 4.4C22 4.69174 21.8841 4.97153 21.6778 5.17782C21.4715 5.38411 21.1917 5.5 20.9 5.5H18.7V18.7C18.6998 19.5751 18.352 20.4144 17.7332 21.0332C17.1144 21.652 16.2751 21.9998 15.4 22H6.6C5.72487 21.9997 4.88565 21.652 4.26684 21.0332C3.64802 20.4144 3.30026 19.5751 3.3 18.7V5.5H1.1C0.808262 5.5 0.528473 5.38411 0.322183 5.17782C0.115892 4.97153 0 4.69174 0 4.4C0 4.10827 0.115892 3.82848 0.322183 3.62219C0.528473 3.4159 0.808262 3.3 1.1 3.3ZM9.57782 16.1778C9.78411 15.9715 9.9 15.6917 9.9 15.4V9.9C9.9 9.60826 9.78411 9.32848 9.57782 9.12219C9.37153 8.9159 9.09174 8.8 8.8 8.8C8.50826 8.8 8.22847 8.9159 8.02218 9.12219C7.81589 9.32848 7.7 9.60826 7.7 9.9V15.4C7.7 15.6917 7.81589 15.9715 8.02218 16.1778C8.22847 16.3841 8.50826 16.5 8.8 16.5C9.09174 16.5 9.37153 16.3841 9.57782 16.1778ZM13.9778 16.1778C14.1841 15.9715 14.3 15.6917 14.3 15.4V9.9C14.3 9.60826 14.1841 9.32848 13.9778 9.12219C13.7715 8.9159 13.4917 8.8 13.2 8.8C12.9083 8.8 12.6285 8.9159 12.4222 9.12219C12.2159 9.32848 12.1 9.60826 12.1 9.9V15.4C12.1 15.6917 12.2159 15.9715 12.4222 16.1778C12.6285 16.3841 12.9083 16.5 13.2 16.5C13.4917 16.5 13.7715 16.3841 13.9778 16.1778Z" fill="#FD8164"/>
</svg>
