<svg width="24" height="24" viewBox="0 0 24 24" fill="none" xmlns="http://www.w3.org/2000/svg">
<path d="M2.23195 10.7128C0.589348 9.0702 0.589348 6.39747 2.23195 4.75413L4.75321 2.2314C6.39509 0.589532 9.06781 0.589532 10.7119 2.2314L14.8081 6.32983L12.7295 8.40919L8.63253 4.31076C8.13475 3.81519 7.33036 3.81519 6.83331 4.31076L4.31131 6.83349C3.815 7.32907 3.815 8.13567 4.31131 8.63198L8.40901 12.7304L6.33038 14.8083L2.23195 10.7128ZM21.7668 13.2892L17.6683 9.19079L15.589 11.2701L19.6867 15.3686C20.183 15.8649 20.183 16.6707 19.6867 17.1671L17.1647 19.6883C16.6662 20.1846 15.8618 20.1832 15.3654 19.6883L11.2678 15.5914L9.1884 17.6707L13.2868 21.7677C14.1074 22.5882 15.1868 23 16.2669 23C17.3455 23 18.4249 22.5882 19.2462 21.7677L21.7682 19.2464C23.4094 17.6045 23.4094 14.9311 21.7668 13.2892ZM21.1837 3.7696L20.144 2.72992L17.3705 5.50264L18.4102 6.54232L21.1837 3.7696ZM18.5793 8.12831L22.3653 9.1452L22.7476 7.72318L18.9602 6.70776L18.5793 8.12831ZM17.2022 4.95192L16.186 1.16378L14.7655 1.54613L15.7809 5.33353L17.2022 4.95192ZM2.90032 19.9729L3.94074 21.0126L6.71346 18.2398L5.67378 17.2009L2.90032 19.9729ZM6.8811 18.7869L7.89725 22.575L9.31781 22.1941L8.30239 18.406L6.8811 18.7869ZM5.5032 15.6105L1.71579 14.5936L1.33492 16.0156L5.12159 17.031L5.5032 15.6105Z" fill="white"/>
</svg>
